<svg width="327" height="40" viewBox="0 0 327 40" fill="none" xmlns="http://www.w3.org/2000/svg">
<g clip-path="url(#clip0_89_1014)">
<path d="M36 39.8672H26.0808V0H28.5163V37.5183H36V39.8672Z" fill="#383C43"/>
<path d="M20.1183 27.3295C17.0877 24.8212 12.0119 24.825 9.83255 24.9578L9.85225 15.175C10.203 15.194 10.6601 15.2092 11.1961 15.2092C13.738 15.2092 18.0059 14.8411 20.5754 12.6136C22.0217 11.3614 22.7587 9.71824 22.7587 7.73361C22.7587 5.52509 21.9587 3.74158 20.3784 2.4362C17.2611 -0.136608 11.9606 0.0265644 9.87196 0.20871L7.44043 0.413624V12.6022C5.96654 12.6591 3.95669 13.0083 2.37639 14.2947C0.796094 15.5811 -0.00390625 17.4822 -0.00390625 19.9412C-0.00390625 22.7189 0.870971 24.8022 2.5892 26.1379C4.13008 27.3333 6.01383 27.6331 7.43255 27.6558V39.7495L9.24142 39.9089C9.67885 39.9469 10.4394 40 11.3971 40C13.9823 40 17.9311 39.6129 20.3587 37.5107C21.8365 36.2319 22.5616 34.5318 22.5183 32.4599C22.4749 30.3387 21.6631 28.6121 20.1104 27.3295H20.1183ZM18.6483 4.38668C19.6257 5.19495 20.0986 6.29162 20.0986 7.7412C20.0986 8.98587 19.6729 9.95731 18.802 10.7125C16.5912 12.6288 11.9646 12.7502 9.85619 12.6136L9.8759 2.78152C11.933 2.56522 16.4059 2.53107 18.6483 4.38668ZM4.25225 24.1381C3.19609 23.3109 2.66013 21.8993 2.66013 19.9412C2.66013 18.2753 3.14092 17.0344 4.09068 16.2565C5.07196 15.452 6.40792 15.213 7.44043 15.1636V25.0944C6.45915 25.0754 5.20989 24.8819 4.25225 24.1343V24.1381ZM18.5892 35.6019C16.4454 37.4613 11.9843 37.5448 9.8089 37.3817L9.82861 27.5192C11.9567 27.3636 16.1971 27.4585 18.3882 29.2686C19.3537 30.0693 19.8385 31.128 19.866 32.5092C19.8936 33.8184 19.4759 34.8316 18.5892 35.5981V35.6019Z" fill="#383C43"/>
</g>
<path d="M71.24 33V9.384H78.26C79.868 9.384 81.272 9.576 82.472 9.96C83.696 10.344 84.644 10.956 85.316 11.796C86.012 12.636 86.36 13.752 86.36 15.144C86.36 16.32 86.06 17.388 85.46 18.348C84.884 19.284 84.032 19.932 82.904 20.292V20.436C84.32 20.7 85.472 21.3 86.36 22.236C87.272 23.172 87.728 24.456 87.728 26.088C87.728 27.624 87.344 28.908 86.576 29.94C85.832 30.972 84.788 31.74 83.444 32.244C82.1 32.748 80.54 33 78.764 33H71.24ZM74.228 19.428H77.72C79.736 19.428 81.188 19.08 82.076 18.384C82.964 17.688 83.408 16.74 83.408 15.54C83.408 14.172 82.94 13.2 82.004 12.624C81.092 12.048 79.712 11.76 77.864 11.76H74.228V19.428ZM74.228 30.624H78.332C80.372 30.624 81.956 30.252 83.084 29.508C84.212 28.74 84.776 27.564 84.776 25.98C84.776 24.516 84.212 23.448 83.084 22.776C81.98 22.08 80.396 21.732 78.332 21.732H74.228V30.624ZM93.8441 33V9.384H101.224C102.832 9.384 104.26 9.6 105.508 10.032C106.756 10.44 107.728 11.136 108.424 12.12C109.144 13.08 109.504 14.376 109.504 16.008C109.504 17.832 109.024 19.308 108.064 20.436C107.104 21.54 105.808 22.296 104.176 22.704L110.188 33H106.804L101.116 23.028H96.8321V33H93.8441ZM96.8321 20.58H100.792C102.64 20.58 104.056 20.208 105.04 19.464C106.024 18.696 106.516 17.544 106.516 16.008C106.516 14.448 106.024 13.356 105.04 12.732C104.056 12.108 102.64 11.796 100.792 11.796H96.8321V20.58ZM119.596 33V23.856L112.504 9.384H115.708L118.768 16.044C119.152 16.908 119.524 17.76 119.884 18.6C120.268 19.44 120.652 20.304 121.036 21.192H121.18C121.588 20.304 121.996 19.44 122.404 18.6C122.812 17.76 123.196 16.908 123.556 16.044L126.58 9.384H129.712L122.62 23.856V33H119.596ZM137.917 19.788L136.801 23.388H143.893L142.777 19.788C142.345 18.468 141.937 17.16 141.553 15.864C141.169 14.544 140.785 13.2 140.401 11.832H140.257C139.897 13.2 139.525 14.544 139.141 15.864C138.757 17.16 138.349 18.468 137.917 19.788ZM130.717 33L138.709 9.384H142.093L150.085 33H146.881L144.649 25.8H136.045L133.777 33H130.717ZM154.871 33V9.384H157.967L166.499 24.216L169.055 29.112H169.199C169.127 27.912 169.043 26.676 168.947 25.404C168.875 24.108 168.839 22.836 168.839 21.588V9.384H171.683V33H168.587L160.019 18.132L157.463 13.272H157.319C157.415 14.448 157.499 15.66 157.571 16.908C157.667 18.156 157.715 19.404 157.715 20.652V33H154.871ZM188.267 33V9.384H191.255V30.444H201.587V33H188.267ZM211.388 19.788L210.272 23.388H217.364L216.248 19.788C215.816 18.468 215.408 17.16 215.024 15.864C214.64 14.544 214.256 13.2 213.872 11.832H213.728C213.368 13.2 212.996 14.544 212.612 15.864C212.228 17.16 211.82 18.468 211.388 19.788ZM204.188 33L212.18 9.384H215.564L223.556 33H220.352L218.12 25.8H209.516L207.248 33H204.188ZM228.342 33V9.384H231.438L239.97 24.216L242.526 29.112H242.67C242.598 27.912 242.514 26.676 242.418 25.404C242.346 24.108 242.31 22.836 242.31 21.588V9.384H245.154V33H242.058L233.49 18.132L230.934 13.272H230.79C230.886 14.448 230.97 15.66 231.042 16.908C231.138 18.156 231.186 19.404 231.186 20.652V33H228.342ZM262.019 33.432C260.051 33.432 258.287 32.952 256.727 31.992C255.191 31.008 253.967 29.604 253.055 27.78C252.167 25.956 251.723 23.76 251.723 21.192C251.723 18.648 252.179 16.464 253.091 14.64C254.003 12.816 255.251 11.412 256.835 10.428C258.419 9.444 260.207 8.952 262.199 8.952C263.639 8.952 264.911 9.252 266.015 9.852C267.119 10.428 268.007 11.1 268.679 11.868L267.059 13.812C266.435 13.14 265.727 12.6 264.935 12.192C264.143 11.784 263.243 11.58 262.235 11.58C260.747 11.58 259.439 11.976 258.311 12.768C257.207 13.536 256.343 14.628 255.719 16.044C255.119 17.46 254.819 19.152 254.819 21.12C254.819 23.088 255.119 24.804 255.719 26.268C256.319 27.708 257.159 28.824 258.239 29.616C259.343 30.408 260.639 30.804 262.127 30.804C263.255 30.804 264.263 30.564 265.151 30.084C266.039 29.604 266.855 28.956 267.599 28.14L269.255 30.012C268.319 31.092 267.263 31.932 266.087 32.532C264.911 33.132 263.555 33.432 262.019 33.432ZM275.097 33V9.384H278.085V33H275.097ZM285.994 33V9.384H299.602V11.904H288.982V19.32H297.946V21.876H288.982V30.444H299.962V33H285.994ZM306.418 33V9.384H309.514L318.046 24.216L320.602 29.112H320.746C320.674 27.912 320.59 26.676 320.494 25.404C320.422 24.108 320.386 22.836 320.386 21.588V9.384H323.23V33H320.134L311.566 18.132L309.01 13.272H308.866C308.962 14.448 309.046 15.66 309.118 16.908C309.214 18.156 309.262 19.404 309.262 20.652V33H306.418Z" fill="#383C43"/>
<defs>
<clipPath id="clip0_89_1014">
<rect width="36" height="40" fill="white"/>
</clipPath>
</defs>
</svg>
